<svg width="1340" height="21" viewBox="0 0 1340 21" fill="none" xmlns="http://www.w3.org/2000/svg">
<path d="M0 3.4043H1.89844L6.3457 14.2676H6.50391L10.9512 3.4043H12.9111V16.5H11.3555V6.55078H11.2324L7.11035 16.5H5.68652L1.61719 6.55078H1.49414V16.5H0V3.4043ZM16.0137 20.1738C15.7559 20.1797 15.5273 20.1621 15.3281 20.1211C15.1289 20.0801 14.9883 20.0391 14.9062 19.998L15.293 18.6797L15.4424 18.7148C15.9463 18.832 16.3682 18.8057 16.708 18.6357C17.0537 18.4717 17.3555 18.0352 17.6133 17.3262L17.8945 16.5527L14.2734 6.67383H15.9082L18.6152 14.5137H18.7207L21.4277 6.67383H23.0625L18.8965 17.9238C18.709 18.4336 18.4775 18.8555 18.2021 19.1895C17.9268 19.5234 17.6074 19.7695 17.2441 19.9277C16.8809 20.0918 16.4707 20.1738 16.0137 20.1738ZM23.6074 16.5L27.5977 11.5078L23.6602 6.67383H25.4355L28.7227 10.875H29.5312V6.67383H31.043V10.875H31.834L35.1035 6.67383H36.8965L32.9766 11.5078L36.9492 16.5H35.1387L31.8164 12.2812H31.043V16.5H29.5312V12.2812H28.7578L25.418 16.5H23.6074ZM41.9766 16.7109C41.0332 16.7109 40.2158 16.5 39.5244 16.0781C38.8389 15.6562 38.3115 15.0674 37.9424 14.3115C37.5732 13.5498 37.3887 12.668 37.3887 11.666C37.3887 10.6582 37.5703 9.77051 37.9336 9.00293C38.2969 8.23535 38.8066 7.63477 39.4629 7.20117C40.125 6.76758 40.8984 6.55078 41.7832 6.55078C42.293 6.55078 42.7998 6.63574 43.3037 6.80566C43.8076 6.97559 44.2646 7.25098 44.6748 7.63184C45.0908 8.0127 45.4219 8.5166 45.668 9.14355C45.9141 9.77051 46.0371 10.541 46.0371 11.4551V12.1055H38.4609V10.8047H45.2197L44.5254 11.2969C44.5254 10.6406 44.4229 10.0576 44.2178 9.54785C44.0127 9.03809 43.7051 8.63672 43.2949 8.34375C42.8906 8.05078 42.3867 7.9043 41.7832 7.9043C41.1797 7.9043 40.6611 8.05371 40.2275 8.35254C39.7998 8.64551 39.4717 9.0293 39.2432 9.50391C39.0146 9.97852 38.9004 10.4883 38.9004 11.0332V11.8945C38.9004 12.6387 39.0293 13.2686 39.2871 13.7842C39.5449 14.2998 39.9053 14.6924 40.3682 14.9619C40.8311 15.2256 41.3672 15.3574 41.9766 15.3574C42.3691 15.3574 42.7266 15.3018 43.0488 15.1904C43.3711 15.0732 43.6494 14.9004 43.8838 14.6719C44.1182 14.4375 44.2969 14.1504 44.4199 13.8105L45.8789 14.2324C45.7266 14.7246 45.4688 15.1582 45.1055 15.5332C44.748 15.9023 44.3027 16.1924 43.7695 16.4033C43.2363 16.6084 42.6387 16.7109 41.9766 16.7109ZM51.4336 16.7109C50.5195 16.7109 49.7285 16.4941 49.0605 16.0605C48.3984 15.6211 47.8857 15.0205 47.5225 14.2588C47.165 13.4971 46.9863 12.627 46.9863 11.6484C46.9863 10.6465 47.1709 9.76465 47.54 9.00293C47.9092 8.23535 48.4248 7.63477 49.0869 7.20117C49.7549 6.76758 50.5312 6.55078 51.416 6.55078C52.1074 6.55078 52.7285 6.67969 53.2793 6.9375C53.8359 7.18945 54.29 7.54688 54.6416 8.00977C54.999 8.47266 55.2188 9.01172 55.3008 9.62695H53.7891C53.7129 9.32812 53.5752 9.04688 53.376 8.7832C53.1768 8.51953 52.9131 8.30859 52.585 8.15039C52.2627 7.98633 51.8789 7.9043 51.4336 7.9043C50.8477 7.9043 50.335 8.05664 49.8955 8.36133C49.4561 8.66602 49.1133 9.09668 48.8672 9.65332C48.6211 10.2041 48.498 10.8516 48.498 11.5957C48.498 12.3516 48.6182 13.0137 48.8584 13.582C49.0986 14.1445 49.4385 14.5811 49.8779 14.8916C50.3232 15.2021 50.8418 15.3574 51.4336 15.3574C52.0254 15.3574 52.5322 15.2051 52.9541 14.9004C53.376 14.5898 53.6543 14.168 53.7891 13.6348H55.3008C55.2188 14.2148 55.0078 14.7363 54.668 15.1992C54.334 15.6621 53.8916 16.0312 53.3408 16.3066C52.7959 16.5762 52.1602 16.7109 51.4336 16.7109ZM55.4414 8.08008V6.67383H63.4043V8.08008H60.1875V16.5H58.6758V8.08008H55.4414ZM64.7754 16.5V6.67383H68.7832C69.8379 6.67969 70.6758 6.92285 71.2969 7.40332C71.9238 7.87793 72.2344 8.50781 72.2285 9.29297C72.2344 9.89062 72.0586 10.3506 71.7012 10.6729C71.3496 10.9951 70.8984 11.2148 70.3477 11.332C70.7051 11.3848 71.0537 11.5137 71.3936 11.7188C71.7393 11.9238 72.0264 12.2051 72.2549 12.5625C72.4834 12.9141 72.5977 13.3477 72.5977 13.8633C72.5977 14.3672 72.4688 14.8184 72.2109 15.2168C71.9531 15.6152 71.5869 15.9287 71.1123 16.1572C70.6377 16.3857 70.0664 16.5 69.3984 16.5H64.7754ZM66.1992 15.1113H69.3984C69.9141 15.1172 70.3184 14.9971 70.6113 14.751C70.9102 14.5049 71.0566 14.168 71.0508 13.7402C71.0566 13.2305 70.9102 12.832 70.6113 12.5449C70.3184 12.252 69.9141 12.1055 69.3984 12.1055H66.1992V15.1113ZM66.1992 10.8047H68.7832C69.3867 10.7988 69.8613 10.6729 70.207 10.4268C70.5527 10.1748 70.7227 9.83203 70.7168 9.39844C70.7227 8.98242 70.5527 8.65723 70.207 8.42285C69.8613 8.18262 69.3867 8.0625 68.7832 8.0625H66.1992V10.8047ZM78.0117 16.7109C77.127 16.7109 76.3506 16.5 75.6826 16.0781C75.0146 15.6562 74.4932 15.0645 74.1182 14.3027C73.749 13.541 73.5645 12.6562 73.5645 11.6484C73.5645 10.623 73.749 9.72949 74.1182 8.96777C74.4932 8.2002 75.0146 7.60547 75.6826 7.18359C76.3506 6.76172 77.127 6.55078 78.0117 6.55078C78.9023 6.55078 79.6816 6.76172 80.3496 7.18359C81.0176 7.60547 81.5391 8.2002 81.9141 8.96777C82.2891 9.72949 82.4766 10.623 82.4766 11.6484C82.4766 12.6562 82.2891 13.541 81.9141 14.3027C81.5391 15.0645 81.0176 15.6562 80.3496 16.0781C79.6816 16.5 78.9023 16.7109 78.0117 16.7109ZM78.0117 15.3574C78.6914 15.3574 79.248 15.1846 79.6816 14.8389C80.1152 14.4932 80.4375 14.0391 80.6484 13.4766C80.8594 12.9082 80.9648 12.2988 80.9648 11.6484C80.9648 10.9863 80.8594 10.3711 80.6484 9.80273C80.4375 9.23438 80.1152 8.77734 79.6816 8.43164C79.248 8.08008 78.6914 7.9043 78.0117 7.9043C77.3438 7.9043 76.793 8.08008 76.3594 8.43164C75.9258 8.77734 75.6035 9.23438 75.3926 9.80273C75.1816 10.3711 75.0762 10.9863 75.0762 11.6484C75.0762 12.2988 75.1816 12.9082 75.3926 13.4766C75.6035 14.0391 75.9258 14.4932 76.3594 14.8389C76.793 15.1846 77.3438 15.3574 78.0117 15.3574Z" fill="white"/>
<path d="M120.254 14.825L123.404 12.925L126.554 14.85L125.729 11.25L128.504 8.85L124.854 8.525L123.404 5.125L121.954 8.5L118.304 8.825L121.079 11.25L120.254 14.825ZM117.229 19L118.854 11.975L113.404 7.25L120.604 6.625L123.404 0L126.204 6.625L133.404 7.25L127.954 11.975L129.579 19L123.404 15.275L117.229 19Z" fill="white"/>
<path d="M165 3.4043H166.898L171.346 14.2676H171.504L175.951 3.4043H177.911V16.5H176.355V6.55078H176.232L172.11 16.5H170.687L166.617 6.55078H166.494V16.5H165V3.4043ZM181.014 20.1738C180.756 20.1797 180.527 20.1621 180.328 20.1211C180.129 20.0801 179.988 20.0391 179.906 19.998L180.293 18.6797L180.442 18.7148C180.946 18.832 181.368 18.8057 181.708 18.6357C182.054 18.4717 182.355 18.0352 182.613 17.3262L182.895 16.5527L179.273 6.67383H180.908L183.615 14.5137H183.721L186.428 6.67383H188.062L183.896 17.9238C183.709 18.4336 183.478 18.8555 183.202 19.1895C182.927 19.5234 182.607 19.7695 182.244 19.9277C181.881 20.0918 181.471 20.1738 181.014 20.1738ZM188.607 16.5L192.598 11.5078L188.66 6.67383H190.436L193.723 10.875H194.531V6.67383H196.043V10.875H196.834L200.104 6.67383H201.896L197.977 11.5078L201.949 16.5H200.139L196.816 12.2812H196.043V16.5H194.531V12.2812H193.758L190.418 16.5H188.607ZM206.977 16.7109C206.033 16.7109 205.216 16.5 204.524 16.0781C203.839 15.6562 203.312 15.0674 202.942 14.3115C202.573 13.5498 202.389 12.668 202.389 11.666C202.389 10.6582 202.57 9.77051 202.934 9.00293C203.297 8.23535 203.807 7.63477 204.463 7.20117C205.125 6.76758 205.898 6.55078 206.783 6.55078C207.293 6.55078 207.8 6.63574 208.304 6.80566C208.808 6.97559 209.265 7.25098 209.675 7.63184C210.091 8.0127 210.422 8.5166 210.668 9.14355C210.914 9.77051 211.037 10.541 211.037 11.4551V12.1055H203.461V10.8047H210.22L209.525 11.2969C209.525 10.6406 209.423 10.0576 209.218 9.54785C209.013 9.03809 208.705 8.63672 208.295 8.34375C207.891 8.05078 207.387 7.9043 206.783 7.9043C206.18 7.9043 205.661 8.05371 205.228 8.35254C204.8 8.64551 204.472 9.0293 204.243 9.50391C204.015 9.97852 203.9 10.4883 203.9 11.0332V11.8945C203.9 12.6387 204.029 13.2686 204.287 13.7842C204.545 14.2998 204.905 14.6924 205.368 14.9619C205.831 15.2256 206.367 15.3574 206.977 15.3574C207.369 15.3574 207.727 15.3018 208.049 15.1904C208.371 15.0732 208.649 14.9004 208.884 14.6719C209.118 14.4375 209.297 14.1504 209.42 13.8105L210.879 14.2324C210.727 14.7246 210.469 15.1582 210.105 15.5332C209.748 15.9023 209.303 16.1924 208.77 16.4033C208.236 16.6084 207.639 16.7109 206.977 16.7109ZM216.434 16.7109C215.52 16.7109 214.729 16.4941 214.061 16.0605C213.398 15.6211 212.886 15.0205 212.522 14.2588C212.165 13.4971 211.986 12.627 211.986 11.6484C211.986 10.6465 212.171 9.76465 212.54 9.00293C212.909 8.23535 213.425 7.63477 214.087 7.20117C214.755 6.76758 215.531 6.55078 216.416 6.55078C217.107 6.55078 217.729 6.67969 218.279 6.9375C218.836 7.18945 219.29 7.54688 219.642 8.00977C219.999 8.47266 220.219 9.01172 220.301 9.62695H218.789C218.713 9.32812 218.575 9.04688 218.376 8.7832C218.177 8.51953 217.913 8.30859 217.585 8.15039C217.263 7.98633 216.879 7.9043 216.434 7.9043C215.848 7.9043 215.335 8.05664 214.896 8.36133C214.456 8.66602 214.113 9.09668 213.867 9.65332C213.621 10.2041 213.498 10.8516 213.498 11.5957C213.498 12.3516 213.618 13.0137 213.858 13.582C214.099 14.1445 214.438 14.5811 214.878 14.8916C215.323 15.2021 215.842 15.3574 216.434 15.3574C217.025 15.3574 217.532 15.2051 217.954 14.9004C218.376 14.5898 218.654 14.168 218.789 13.6348H220.301C220.219 14.2148 220.008 14.7363 219.668 15.1992C219.334 15.6621 218.892 16.0312 218.341 16.3066C217.796 16.5762 217.16 16.7109 216.434 16.7109ZM220.441 8.08008V6.67383H228.404V8.08008H225.188V16.5H223.676V8.08008H220.441ZM229.775 16.5V6.67383H233.783C234.838 6.67969 235.676 6.92285 236.297 7.40332C236.924 7.87793 237.234 8.50781 237.229 9.29297C237.234 9.89062 237.059 10.3506 236.701 10.6729C236.35 10.9951 235.898 11.2148 235.348 11.332C235.705 11.3848 236.054 11.5137 236.394 11.7188C236.739 11.9238 237.026 12.2051 237.255 12.5625C237.483 12.9141 237.598 13.3477 237.598 13.8633C237.598 14.3672 237.469 14.8184 237.211 15.2168C236.953 15.6152 236.587 15.9287 236.112 16.1572C235.638 16.3857 235.066 16.5 234.398 16.5H229.775ZM231.199 15.1113H234.398C234.914 15.1172 235.318 14.9971 235.611 14.751C235.91 14.5049 236.057 14.168 236.051 13.7402C236.057 13.2305 235.91 12.832 235.611 12.5449C235.318 12.252 234.914 12.1055 234.398 12.1055H231.199V15.1113ZM231.199 10.8047H233.783C234.387 10.7988 234.861 10.6729 235.207 10.4268C235.553 10.1748 235.723 9.83203 235.717 9.39844C235.723 8.98242 235.553 8.65723 235.207 8.42285C234.861 8.18262 234.387 8.0625 233.783 8.0625H231.199V10.8047ZM243.012 16.7109C242.127 16.7109 241.351 16.5 240.683 16.0781C240.015 15.6562 239.493 15.0645 239.118 14.3027C238.749 13.541 238.564 12.6562 238.564 11.6484C238.564 10.623 238.749 9.72949 239.118 8.96777C239.493 8.2002 240.015 7.60547 240.683 7.18359C241.351 6.76172 242.127 6.55078 243.012 6.55078C243.902 6.55078 244.682 6.76172 245.35 7.18359C246.018 7.60547 246.539 8.2002 246.914 8.96777C247.289 9.72949 247.477 10.623 247.477 11.6484C247.477 12.6562 247.289 13.541 246.914 14.3027C246.539 15.0645 246.018 15.6562 245.35 16.0781C244.682 16.5 243.902 16.7109 243.012 16.7109ZM243.012 15.3574C243.691 15.3574 244.248 15.1846 244.682 14.8389C245.115 14.4932 245.438 14.0391 245.648 13.4766C245.859 12.9082 245.965 12.2988 245.965 11.6484C245.965 10.9863 245.859 10.3711 245.648 9.80273C245.438 9.23438 245.115 8.77734 244.682 8.43164C244.248 8.08008 243.691 7.9043 243.012 7.9043C242.344 7.9043 241.793 8.08008 241.359 8.43164C240.926 8.77734 240.604 9.23438 240.393 9.80273C240.182 10.3711 240.076 10.9863 240.076 11.6484C240.076 12.2988 240.182 12.9082 240.393 13.4766C240.604 14.0391 240.926 14.4932 241.359 14.8389C241.793 15.1846 242.344 15.3574 243.012 15.3574Z" fill="white"/>
<path d="M285.254 14.825L288.404 12.925L291.554 14.85L290.729 11.25L293.504 8.85L289.854 8.525L288.404 5.125L286.954 8.5L283.304 8.825L286.079 11.25L285.254 14.825ZM282.229 19L283.854 11.975L278.404 7.25L285.604 6.625L288.404 0L291.204 6.625L298.404 7.25L292.954 11.975L294.579 19L288.404 15.275L282.229 19Z" fill="white"/>
<path d="M328.611 19.6641V15.0938H329.455C329.748 14.8301 330.023 14.458 330.281 13.9775C330.539 13.4912 330.759 12.8408 330.94 12.0264C331.122 11.2119 331.242 10.1777 331.301 8.92383L331.582 3.4043H339.352V15.0938H340.863V19.6465H339.352V16.5H330.123V19.6641H328.611ZM331.354 15.0938H337.84V4.81055H333.006L332.812 8.92383C332.76 9.87891 332.669 10.7461 332.54 11.5254C332.411 12.2988 332.247 12.9814 332.048 13.5732C331.849 14.165 331.617 14.6719 331.354 15.0938ZM346.084 16.7109C345.199 16.7109 344.423 16.5 343.755 16.0781C343.087 15.6562 342.565 15.0645 342.19 14.3027C341.821 13.541 341.637 12.6562 341.637 11.6484C341.637 10.623 341.821 9.72949 342.19 8.96777C342.565 8.2002 343.087 7.60547 343.755 7.18359C344.423 6.76172 345.199 6.55078 346.084 6.55078C346.975 6.55078 347.754 6.76172 348.422 7.18359C349.09 7.60547 349.611 8.2002 349.986 8.96777C350.361 9.72949 350.549 10.623 350.549 11.6484C350.549 12.6562 350.361 13.541 349.986 14.3027C349.611 15.0645 349.09 15.6562 348.422 16.0781C347.754 16.5 346.975 16.7109 346.084 16.7109ZM346.084 15.3574C346.764 15.3574 347.32 15.1846 347.754 14.8389C348.188 14.4932 348.51 14.0391 348.721 13.4766C348.932 12.9082 349.037 12.2988 349.037 11.6484C349.037 10.9863 348.932 10.3711 348.721 9.80273C348.51 9.23438 348.188 8.77734 347.754 8.43164C347.32 8.08008 346.764 7.9043 346.084 7.9043C345.416 7.9043 344.865 8.08008 344.432 8.43164C343.998 8.77734 343.676 9.23438 343.465 9.80273C343.254 10.3711 343.148 10.9863 343.148 11.6484C343.148 12.2988 343.254 12.9082 343.465 13.4766C343.676 14.0391 343.998 14.4932 344.432 14.8389C344.865 15.1846 345.416 15.3574 346.084 15.3574ZM351.129 16.5V15.0938H351.48C351.879 15.0938 352.189 14.9854 352.412 14.7686C352.635 14.5459 352.799 14.1416 352.904 13.5557C353.016 12.9697 353.092 12.1289 353.133 11.0332L353.309 6.67383H359.848V16.5H358.336V8.08008H354.732L354.574 11.5957C354.539 12.3984 354.469 13.1074 354.363 13.7227C354.258 14.332 354.094 14.8447 353.871 15.2607C353.654 15.6709 353.364 15.9814 353.001 16.1924C352.638 16.3975 352.184 16.5 351.639 16.5H351.129ZM367.828 6.67383V8.08008H363.275V16.5H361.781V6.67383H367.828Z" fill="white"/>
<path d="M405.254 14.825L408.404 12.925L411.554 14.85L410.729 11.25L413.504 8.85L409.854 8.525L408.404 5.125L406.954 8.5L403.304 8.825L406.079 11.25L405.254 14.825ZM402.229 19L403.854 11.975L398.404 7.25L405.604 6.625L408.404 0L411.204 6.625L418.404 7.25L412.954 11.975L414.579 19L408.404 15.275L402.229 19Z" fill="white"/>
<path d="M450.167 3.4043H451.767V7.78125C451.761 8.75391 452.007 9.41895 452.505 9.77637C453.003 10.1338 453.677 10.3125 454.526 10.3125C454.878 10.3125 455.218 10.3008 455.546 10.2773C455.88 10.248 456.205 10.207 456.521 10.1543C456.844 10.1016 457.157 10.04 457.462 9.96973C457.767 9.89941 458.065 9.82031 458.358 9.73242V11.1562C458.071 11.2441 457.787 11.3262 457.506 11.4023C457.23 11.4727 456.94 11.5342 456.636 11.5869C456.337 11.6338 456.015 11.6719 455.669 11.7012C455.329 11.7246 454.948 11.7363 454.526 11.7363C453.624 11.7363 452.848 11.6074 452.197 11.3496C451.547 11.0918 451.046 10.6729 450.694 10.0928C450.349 9.5127 450.173 8.74219 450.167 7.78125V3.4043ZM458.147 3.4043H459.729V16.5H458.147V3.4043ZM465.97 16.7109C465.026 16.7109 464.209 16.5 463.518 16.0781C462.832 15.6562 462.305 15.0674 461.936 14.3115C461.566 13.5498 461.382 12.668 461.382 11.666C461.382 10.6582 461.563 9.77051 461.927 9.00293C462.29 8.23535 462.8 7.63477 463.456 7.20117C464.118 6.76758 464.892 6.55078 465.776 6.55078C466.286 6.55078 466.793 6.63574 467.297 6.80566C467.801 6.97559 468.258 7.25098 468.668 7.63184C469.084 8.0127 469.415 8.5166 469.661 9.14355C469.907 9.77051 470.03 10.541 470.03 11.4551V12.1055H462.454V10.8047H469.213L468.519 11.2969C468.519 10.6406 468.416 10.0576 468.211 9.54785C468.006 9.03809 467.698 8.63672 467.288 8.34375C466.884 8.05078 466.38 7.9043 465.776 7.9043C465.173 7.9043 464.654 8.05371 464.221 8.35254C463.793 8.64551 463.465 9.0293 463.236 9.50391C463.008 9.97852 462.894 10.4883 462.894 11.0332V11.8945C462.894 12.6387 463.022 13.2686 463.28 13.7842C463.538 14.2998 463.898 14.6924 464.361 14.9619C464.824 15.2256 465.36 15.3574 465.97 15.3574C466.362 15.3574 466.72 15.3018 467.042 15.1904C467.364 15.0732 467.643 14.9004 467.877 14.6719C468.111 14.4375 468.29 14.1504 468.413 13.8105L469.872 14.2324C469.72 14.7246 469.462 15.1582 469.099 15.5332C468.741 15.9023 468.296 16.1924 467.763 16.4033C467.229 16.6084 466.632 16.7109 465.97 16.7109ZM475.427 16.7109C474.513 16.7109 473.722 16.4941 473.054 16.0605C472.392 15.6211 471.879 15.0205 471.516 14.2588C471.158 13.4971 470.979 12.627 470.979 11.6484C470.979 10.6465 471.164 9.76465 471.533 9.00293C471.902 8.23535 472.418 7.63477 473.08 7.20117C473.748 6.76758 474.524 6.55078 475.409 6.55078C476.101 6.55078 476.722 6.67969 477.272 6.9375C477.829 7.18945 478.283 7.54688 478.635 8.00977C478.992 8.47266 479.212 9.01172 479.294 9.62695H477.782C477.706 9.32812 477.568 9.04688 477.369 8.7832C477.17 8.51953 476.906 8.30859 476.578 8.15039C476.256 7.98633 475.872 7.9043 475.427 7.9043C474.841 7.9043 474.328 8.05664 473.889 8.36133C473.449 8.66602 473.106 9.09668 472.86 9.65332C472.614 10.2041 472.491 10.8516 472.491 11.5957C472.491 12.3516 472.611 13.0137 472.852 13.582C473.092 14.1445 473.432 14.5811 473.871 14.8916C474.316 15.2021 474.835 15.3574 475.427 15.3574C476.019 15.3574 476.525 15.2051 476.947 14.9004C477.369 14.5898 477.647 14.168 477.782 13.6348H479.294C479.212 14.2148 479.001 14.7363 478.661 15.1992C478.327 15.6621 477.885 16.0312 477.334 16.3066C476.789 16.5762 476.153 16.7109 475.427 16.7109ZM479.435 8.08008V6.67383H487.397V8.08008H484.181V16.5H482.669V8.08008H479.435ZM490.069 10.2422H492.882C494.03 10.2363 494.909 10.5264 495.519 11.1123C496.128 11.6982 496.433 12.4395 496.433 13.3359C496.433 13.9219 496.295 14.4551 496.02 14.9355C495.75 15.4102 495.352 15.791 494.824 16.0781C494.297 16.3594 493.649 16.5 492.882 16.5H488.769V6.67383H490.263V15.0938H492.882C493.474 15.0938 493.96 14.9385 494.341 14.6279C494.728 14.3115 494.921 13.9043 494.921 13.4062C494.921 12.8848 494.728 12.46 494.341 12.1318C493.96 11.8037 493.474 11.6426 492.882 11.6484H490.069V10.2422Z" fill="white"/>
<path d="M534.254 14.825L537.404 12.925L540.554 14.85L539.729 11.25L542.504 8.85L538.854 8.525L537.404 5.125L535.954 8.5L532.304 8.825L535.079 11.25L534.254 14.825ZM531.229 19L532.854 11.975L527.404 7.25L534.604 6.625L537.404 0L540.204 6.625L547.404 7.25L541.954 11.975L543.579 19L537.404 15.275L531.229 19Z" fill="white"/>
<path d="M578.752 16.5V3.4043H583.182C584.207 3.4043 585.045 3.58887 585.695 3.95801C586.352 4.32715 586.838 4.8252 587.154 5.45215C587.471 6.0791 587.629 6.7793 587.629 7.55273C587.629 8.32031 587.471 9.02051 587.154 9.65332C586.844 10.2861 586.36 10.79 585.704 11.165C585.054 11.5342 584.219 11.7188 583.199 11.7188H580.035V10.3125H583.146C583.85 10.3125 584.415 10.1924 584.843 9.95215C585.271 9.71191 585.581 9.38379 585.774 8.96777C585.968 8.5459 586.064 8.07422 586.064 7.55273C586.064 7.02539 585.968 6.55664 585.774 6.14648C585.581 5.73047 585.268 5.40527 584.834 5.1709C584.406 4.93066 583.838 4.81055 583.129 4.81055H580.334V16.5H578.752ZM593.008 16.7109C592.123 16.7109 591.347 16.5 590.679 16.0781C590.011 15.6562 589.489 15.0645 589.114 14.3027C588.745 13.541 588.561 12.6562 588.561 11.6484C588.561 10.623 588.745 9.72949 589.114 8.96777C589.489 8.2002 590.011 7.60547 590.679 7.18359C591.347 6.76172 592.123 6.55078 593.008 6.55078C593.898 6.55078 594.678 6.76172 595.346 7.18359C596.014 7.60547 596.535 8.2002 596.91 8.96777C597.285 9.72949 597.473 10.623 597.473 11.6484C597.473 12.6562 597.285 13.541 596.91 14.3027C596.535 15.0645 596.014 15.6562 595.346 16.0781C594.678 16.5 593.898 16.7109 593.008 16.7109ZM593.008 15.3574C593.688 15.3574 594.244 15.1846 594.678 14.8389C595.111 14.4932 595.434 14.0391 595.645 13.4766C595.855 12.9082 595.961 12.2988 595.961 11.6484C595.961 10.9863 595.855 10.3711 595.645 9.80273C595.434 9.23438 595.111 8.77734 594.678 8.43164C594.244 8.08008 593.688 7.9043 593.008 7.9043C592.34 7.9043 591.789 8.08008 591.355 8.43164C590.922 8.77734 590.6 9.23438 590.389 9.80273C590.178 10.3711 590.072 10.9863 590.072 11.6484C590.072 12.2988 590.178 12.9082 590.389 13.4766C590.6 14.0391 590.922 14.4932 591.355 14.8389C591.789 15.1846 592.34 15.3574 593.008 15.3574ZM597.877 19.3125V15.0938H598.686C598.885 14.8828 599.058 14.6572 599.204 14.417C599.356 14.1768 599.485 13.8896 599.591 13.5557C599.696 13.2158 599.787 12.8057 599.863 12.3252C599.945 11.8447 600.016 11.2617 600.074 10.5762L600.408 6.67383H606.648V15.0938H608.16V19.3125H606.648V16.5H599.389V19.3125H597.877ZM600.408 15.0938H605.137V8.08008H601.814L601.551 10.5762C601.451 11.6016 601.322 12.498 601.164 13.2656C601.006 14.0332 600.754 14.6426 600.408 15.0938ZM610.814 14.2676L615.543 6.67383H617.283V16.5H615.789V8.90625L611.078 16.5H609.32V6.67383H610.814V14.2676ZM625.773 10.8926V12.2988H620.359V10.8926H625.773ZM620.711 6.67383V16.5H619.217V6.67383H620.711ZM626.934 6.67383V16.5H625.422V6.67383H626.934ZM631.75 16.7285C631.129 16.7285 630.563 16.6113 630.054 16.377C629.544 16.1367 629.14 15.791 628.841 15.3398C628.542 14.8887 628.393 14.3438 628.393 13.7051C628.393 13.1426 628.504 12.6885 628.727 12.3428C628.949 11.9912 629.245 11.7158 629.614 11.5166C629.989 11.3115 630.399 11.1592 630.845 11.0596C631.296 10.96 631.75 10.8809 632.207 10.8223C632.805 10.7461 633.288 10.6875 633.657 10.6465C634.032 10.6055 634.305 10.5352 634.475 10.4355C634.65 10.3359 634.738 10.166 634.738 9.92578V9.87305C634.738 9.24609 634.565 8.75977 634.22 8.41406C633.88 8.0625 633.361 7.88672 632.664 7.88672C631.949 7.88672 631.387 8.04492 630.977 8.36133C630.566 8.67188 630.279 9.00586 630.115 9.36328L628.674 8.85352C628.932 8.25586 629.274 7.79004 629.702 7.45605C630.136 7.12207 630.604 6.8877 631.108 6.75293C631.618 6.61816 632.119 6.55078 632.611 6.55078C632.928 6.55078 633.291 6.58887 633.701 6.66504C634.111 6.73535 634.51 6.8877 634.896 7.12207C635.289 7.35059 635.611 7.69922 635.863 8.16797C636.121 8.63086 636.25 9.25195 636.25 10.0312V16.5H634.738V15.1641H634.668C634.568 15.375 634.398 15.6035 634.158 15.8496C633.918 16.0898 633.599 16.2979 633.2 16.4736C632.808 16.6436 632.324 16.7285 631.75 16.7285ZM631.979 15.375C632.576 15.375 633.08 15.2578 633.49 15.0234C633.9 14.7891 634.211 14.4873 634.422 14.1182C634.633 13.7432 634.738 13.3535 634.738 12.9492V11.5605C634.674 11.6367 634.533 11.707 634.316 11.7715C634.105 11.8301 633.859 11.8828 633.578 11.9297C633.303 11.9766 633.033 12.0176 632.77 12.0527C632.506 12.082 632.295 12.1055 632.137 12.123C631.744 12.1758 631.378 12.2607 631.038 12.3779C630.698 12.4893 630.423 12.6562 630.212 12.8789C630.007 13.1016 629.904 13.4062 629.904 13.793C629.904 14.3145 630.098 14.71 630.484 14.9795C630.877 15.2432 631.375 15.375 631.979 15.375Z" fill="white"/>
<path d="M674.254 14.825L677.404 12.925L680.554 14.85L679.729 11.25L682.504 8.85L678.854 8.525L677.404 5.125L675.954 8.5L672.304 8.825L675.079 11.25L674.254 14.825ZM671.229 19L672.854 11.975L667.404 7.25L674.604 6.625L677.404 0L680.204 6.625L687.404 7.25L681.954 11.975L683.579 19L677.404 15.275L671.229 19Z" fill="white"/>
<path d="M718.717 3.4043H720.299V13.7051H720.422L727.594 3.4043H729.123V16.5H727.541V6.2168H727.4L720.281 16.5H718.717V3.4043ZM735.223 16.7109C734.309 16.7109 733.518 16.4941 732.85 16.0605C732.188 15.6211 731.675 15.0205 731.312 14.2588C730.954 13.4971 730.775 12.627 730.775 11.6484C730.775 10.6465 730.96 9.76465 731.329 9.00293C731.698 8.23535 732.214 7.63477 732.876 7.20117C733.544 6.76758 734.32 6.55078 735.205 6.55078C735.896 6.55078 736.518 6.67969 737.068 6.9375C737.625 7.18945 738.079 7.54688 738.431 8.00977C738.788 8.47266 739.008 9.01172 739.09 9.62695H737.578C737.502 9.32812 737.364 9.04688 737.165 8.7832C736.966 8.51953 736.702 8.30859 736.374 8.15039C736.052 7.98633 735.668 7.9043 735.223 7.9043C734.637 7.9043 734.124 8.05664 733.685 8.36133C733.245 8.66602 732.902 9.09668 732.656 9.65332C732.41 10.2041 732.287 10.8516 732.287 11.5957C732.287 12.3516 732.407 13.0137 732.647 13.582C732.888 14.1445 733.228 14.5811 733.667 14.8916C734.112 15.2021 734.631 15.3574 735.223 15.3574C735.814 15.3574 736.321 15.2051 736.743 14.9004C737.165 14.5898 737.443 14.168 737.578 13.6348H739.09C739.008 14.2148 738.797 14.7363 738.457 15.1992C738.123 15.6621 737.681 16.0312 737.13 16.3066C736.585 16.5762 735.949 16.7109 735.223 16.7109ZM739.23 8.08008V6.67383H747.193V8.08008H743.977V16.5H742.465V8.08008H739.23ZM752.027 16.7109C751.143 16.7109 750.366 16.5 749.698 16.0781C749.03 15.6562 748.509 15.0645 748.134 14.3027C747.765 13.541 747.58 12.6562 747.58 11.6484C747.58 10.623 747.765 9.72949 748.134 8.96777C748.509 8.2002 749.03 7.60547 749.698 7.18359C750.366 6.76172 751.143 6.55078 752.027 6.55078C752.918 6.55078 753.697 6.76172 754.365 7.18359C755.033 7.60547 755.555 8.2002 755.93 8.96777C756.305 9.72949 756.492 10.623 756.492 11.6484C756.492 12.6562 756.305 13.541 755.93 14.3027C755.555 15.0645 755.033 15.6562 754.365 16.0781C753.697 16.5 752.918 16.7109 752.027 16.7109ZM752.027 15.3574C752.707 15.3574 753.264 15.1846 753.697 14.8389C754.131 14.4932 754.453 14.0391 754.664 13.4766C754.875 12.9082 754.98 12.2988 754.98 11.6484C754.98 10.9863 754.875 10.3711 754.664 9.80273C754.453 9.23438 754.131 8.77734 753.697 8.43164C753.264 8.08008 752.707 7.9043 752.027 7.9043C751.359 7.9043 750.809 8.08008 750.375 8.43164C749.941 8.77734 749.619 9.23438 749.408 9.80273C749.197 10.3711 749.092 10.9863 749.092 11.6484C749.092 12.2988 749.197 12.9082 749.408 13.4766C749.619 14.0391 749.941 14.4932 750.375 14.8389C750.809 15.1846 751.359 15.3574 752.027 15.3574ZM757.951 20.1738V6.67383H759.393V8.23828H759.568C759.68 8.06836 759.835 7.85156 760.034 7.58789C760.233 7.31836 760.521 7.07812 760.896 6.86719C761.271 6.65625 761.777 6.55078 762.416 6.55078C763.242 6.55078 763.969 6.75879 764.596 7.1748C765.223 7.58496 765.712 8.1709 766.063 8.93262C766.421 9.68848 766.6 10.582 766.6 11.6133C766.6 12.6504 766.424 13.5527 766.072 14.3203C765.721 15.082 765.231 15.6709 764.604 16.0869C763.978 16.5029 763.254 16.7109 762.434 16.7109C761.807 16.7109 761.303 16.6055 760.922 16.3945C760.541 16.1777 760.248 15.9346 760.043 15.665C759.838 15.3896 759.68 15.1641 759.568 14.9883H759.445V20.1738H757.951ZM762.24 15.3574C762.867 15.3574 763.392 15.1904 763.813 14.8564C764.235 14.5166 764.552 14.0625 764.763 13.4941C764.979 12.9258 765.088 12.293 765.088 11.5957C765.088 10.9043 764.982 10.2803 764.771 9.72363C764.561 9.16699 764.244 8.72461 763.822 8.39648C763.406 8.06836 762.879 7.9043 762.24 7.9043C761.625 7.9043 761.109 8.05957 760.693 8.37012C760.277 8.6748 759.961 9.10547 759.744 9.66211C759.533 10.2129 759.428 10.8574 759.428 11.5957C759.428 12.334 759.536 12.9873 759.753 13.5557C759.97 14.1182 760.286 14.5605 760.702 14.8828C761.124 15.1992 761.637 15.3574 762.24 15.3574ZM769.553 14.2676L774.281 6.67383H776.021V16.5H774.527V8.90625L769.816 16.5H768.059V6.67383H769.553V14.2676ZM783.861 16.5V8.0625H781.242C780.656 8.0625 780.193 8.2002 779.854 8.47559C779.52 8.74512 779.355 9.11719 779.361 9.5918C779.355 10.0605 779.505 10.4297 779.81 10.6992C780.114 10.9688 780.533 11.1035 781.066 11.1035H784.23V12.5098H781.066C780.398 12.5098 779.824 12.3926 779.344 12.1582C778.863 11.9238 778.494 11.5898 778.236 11.1562C777.979 10.7168 777.85 10.1953 777.85 9.5918C777.85 8.98828 777.984 8.46973 778.254 8.03613C778.529 7.60254 778.919 7.26855 779.423 7.03418C779.933 6.79395 780.539 6.67383 781.242 6.67383H785.285V16.5H783.861ZM777.305 16.5L780.1 11.6133H781.734L778.939 16.5H777.305Z" fill="white"/>
<path d="M823.254 14.825L826.404 12.925L829.554 14.85L828.729 11.25L831.504 8.85L827.854 8.525L826.404 5.125L824.954 8.5L821.304 8.825L824.079 11.25L823.254 14.825ZM820.229 19L821.854 11.975L816.404 7.25L823.604 6.625L826.404 0L829.204 6.625L836.404 7.25L830.954 11.975L832.579 19L826.404 15.275L820.229 19Z" fill="white"/>
<path d="M868 3.4043H869.898L874.346 14.2676H874.504L878.951 3.4043H880.911V16.5H879.355V6.55078H879.232L875.11 16.5H873.687L869.617 6.55078H869.494V16.5H868V3.4043ZM884.014 20.1738C883.756 20.1797 883.527 20.1621 883.328 20.1211C883.129 20.0801 882.988 20.0391 882.906 19.998L883.293 18.6797L883.442 18.7148C883.946 18.832 884.368 18.8057 884.708 18.6357C885.054 18.4717 885.355 18.0352 885.613 17.3262L885.895 16.5527L882.273 6.67383H883.908L886.615 14.5137H886.721L889.428 6.67383H891.062L886.896 17.9238C886.709 18.4336 886.478 18.8555 886.202 19.1895C885.927 19.5234 885.607 19.7695 885.244 19.9277C884.881 20.0918 884.471 20.1738 884.014 20.1738ZM891.607 16.5L895.598 11.5078L891.66 6.67383H893.436L896.723 10.875H897.531V6.67383H899.043V10.875H899.834L903.104 6.67383H904.896L900.977 11.5078L904.949 16.5H903.139L899.816 12.2812H899.043V16.5H897.531V12.2812H896.758L893.418 16.5H891.607ZM909.977 16.7109C909.033 16.7109 908.216 16.5 907.524 16.0781C906.839 15.6562 906.312 15.0674 905.942 14.3115C905.573 13.5498 905.389 12.668 905.389 11.666C905.389 10.6582 905.57 9.77051 905.934 9.00293C906.297 8.23535 906.807 7.63477 907.463 7.20117C908.125 6.76758 908.898 6.55078 909.783 6.55078C910.293 6.55078 910.8 6.63574 911.304 6.80566C911.808 6.97559 912.265 7.25098 912.675 7.63184C913.091 8.0127 913.422 8.5166 913.668 9.14355C913.914 9.77051 914.037 10.541 914.037 11.4551V12.1055H906.461V10.8047H913.22L912.525 11.2969C912.525 10.6406 912.423 10.0576 912.218 9.54785C912.013 9.03809 911.705 8.63672 911.295 8.34375C910.891 8.05078 910.387 7.9043 909.783 7.9043C909.18 7.9043 908.661 8.05371 908.228 8.35254C907.8 8.64551 907.472 9.0293 907.243 9.50391C907.015 9.97852 906.9 10.4883 906.9 11.0332V11.8945C906.9 12.6387 907.029 13.2686 907.287 13.7842C907.545 14.2998 907.905 14.6924 908.368 14.9619C908.831 15.2256 909.367 15.3574 909.977 15.3574C910.369 15.3574 910.727 15.3018 911.049 15.1904C911.371 15.0732 911.649 14.9004 911.884 14.6719C912.118 14.4375 912.297 14.1504 912.42 13.8105L913.879 14.2324C913.727 14.7246 913.469 15.1582 913.105 15.5332C912.748 15.9023 912.303 16.1924 911.77 16.4033C911.236 16.6084 910.639 16.7109 909.977 16.7109ZM919.434 16.7109C918.52 16.7109 917.729 16.4941 917.061 16.0605C916.398 15.6211 915.886 15.0205 915.522 14.2588C915.165 13.4971 914.986 12.627 914.986 11.6484C914.986 10.6465 915.171 9.76465 915.54 9.00293C915.909 8.23535 916.425 7.63477 917.087 7.20117C917.755 6.76758 918.531 6.55078 919.416 6.55078C920.107 6.55078 920.729 6.67969 921.279 6.9375C921.836 7.18945 922.29 7.54688 922.642 8.00977C922.999 8.47266 923.219 9.01172 923.301 9.62695H921.789C921.713 9.32812 921.575 9.04688 921.376 8.7832C921.177 8.51953 920.913 8.30859 920.585 8.15039C920.263 7.98633 919.879 7.9043 919.434 7.9043C918.848 7.9043 918.335 8.05664 917.896 8.36133C917.456 8.66602 917.113 9.09668 916.867 9.65332C916.621 10.2041 916.498 10.8516 916.498 11.5957C916.498 12.3516 916.618 13.0137 916.858 13.582C917.099 14.1445 917.438 14.5811 917.878 14.8916C918.323 15.2021 918.842 15.3574 919.434 15.3574C920.025 15.3574 920.532 15.2051 920.954 14.9004C921.376 14.5898 921.654 14.168 921.789 13.6348H923.301C923.219 14.2148 923.008 14.7363 922.668 15.1992C922.334 15.6621 921.892 16.0312 921.341 16.3066C920.796 16.5762 920.16 16.7109 919.434 16.7109ZM923.441 8.08008V6.67383H931.404V8.08008H928.188V16.5H926.676V8.08008H923.441ZM932.775 16.5V6.67383H936.783C937.838 6.67969 938.676 6.92285 939.297 7.40332C939.924 7.87793 940.234 8.50781 940.229 9.29297C940.234 9.89062 940.059 10.3506 939.701 10.6729C939.35 10.9951 938.898 11.2148 938.348 11.332C938.705 11.3848 939.054 11.5137 939.394 11.7188C939.739 11.9238 940.026 12.2051 940.255 12.5625C940.483 12.9141 940.598 13.3477 940.598 13.8633C940.598 14.3672 940.469 14.8184 940.211 15.2168C939.953 15.6152 939.587 15.9287 939.112 16.1572C938.638 16.3857 938.066 16.5 937.398 16.5H932.775ZM934.199 15.1113H937.398C937.914 15.1172 938.318 14.9971 938.611 14.751C938.91 14.5049 939.057 14.168 939.051 13.7402C939.057 13.2305 938.91 12.832 938.611 12.5449C938.318 12.252 937.914 12.1055 937.398 12.1055H934.199V15.1113ZM934.199 10.8047H936.783C937.387 10.7988 937.861 10.6729 938.207 10.4268C938.553 10.1748 938.723 9.83203 938.717 9.39844C938.723 8.98242 938.553 8.65723 938.207 8.42285C937.861 8.18262 937.387 8.0625 936.783 8.0625H934.199V10.8047ZM946.012 16.7109C945.127 16.7109 944.351 16.5 943.683 16.0781C943.015 15.6562 942.493 15.0645 942.118 14.3027C941.749 13.541 941.564 12.6562 941.564 11.6484C941.564 10.623 941.749 9.72949 942.118 8.96777C942.493 8.2002 943.015 7.60547 943.683 7.18359C944.351 6.76172 945.127 6.55078 946.012 6.55078C946.902 6.55078 947.682 6.76172 948.35 7.18359C949.018 7.60547 949.539 8.2002 949.914 8.96777C950.289 9.72949 950.477 10.623 950.477 11.6484C950.477 12.6562 950.289 13.541 949.914 14.3027C949.539 15.0645 949.018 15.6562 948.35 16.0781C947.682 16.5 946.902 16.7109 946.012 16.7109ZM946.012 15.3574C946.691 15.3574 947.248 15.1846 947.682 14.8389C948.115 14.4932 948.438 14.0391 948.648 13.4766C948.859 12.9082 948.965 12.2988 948.965 11.6484C948.965 10.9863 948.859 10.3711 948.648 9.80273C948.438 9.23438 948.115 8.77734 947.682 8.43164C947.248 8.08008 946.691 7.9043 946.012 7.9043C945.344 7.9043 944.793 8.08008 944.359 8.43164C943.926 8.77734 943.604 9.23438 943.393 9.80273C943.182 10.3711 943.076 10.9863 943.076 11.6484C943.076 12.2988 943.182 12.9082 943.393 13.4766C943.604 14.0391 943.926 14.4932 944.359 14.8389C944.793 15.1846 945.344 15.3574 946.012 15.3574Z" fill="white"/>
<path d="M988.254 14.825L991.404 12.925L994.554 14.85L993.729 11.25L996.504 8.85L992.854 8.525L991.404 5.125L989.954 8.5L986.304 8.825L989.079 11.25L988.254 14.825ZM985.229 19L986.854 11.975L981.404 7.25L988.604 6.625L991.404 0L994.204 6.625L1001.4 7.25L995.954 11.975L997.579 19L991.404 15.275L985.229 19Z" fill="white"/>
<path d="M1031.61 19.6641V15.0938H1032.46C1032.75 14.8301 1033.02 14.458 1033.28 13.9775C1033.54 13.4912 1033.76 12.8408 1033.94 12.0264C1034.12 11.2119 1034.24 10.1777 1034.3 8.92383L1034.58 3.4043H1042.35V15.0938H1043.86V19.6465H1042.35V16.5H1033.12V19.6641H1031.61ZM1034.35 15.0938H1040.84V4.81055H1036.01L1035.81 8.92383C1035.76 9.87891 1035.67 10.7461 1035.54 11.5254C1035.41 12.2988 1035.25 12.9814 1035.05 13.5732C1034.85 14.165 1034.62 14.6719 1034.35 15.0938ZM1049.08 16.7109C1048.2 16.7109 1047.42 16.5 1046.75 16.0781C1046.09 15.6562 1045.57 15.0645 1045.19 14.3027C1044.82 13.541 1044.64 12.6562 1044.64 11.6484C1044.64 10.623 1044.82 9.72949 1045.19 8.96777C1045.57 8.2002 1046.09 7.60547 1046.75 7.18359C1047.42 6.76172 1048.2 6.55078 1049.08 6.55078C1049.97 6.55078 1050.75 6.76172 1051.42 7.18359C1052.09 7.60547 1052.61 8.2002 1052.99 8.96777C1053.36 9.72949 1053.55 10.623 1053.55 11.6484C1053.55 12.6562 1053.36 13.541 1052.99 14.3027C1052.61 15.0645 1052.09 15.6562 1051.42 16.0781C1050.75 16.5 1049.97 16.7109 1049.08 16.7109ZM1049.08 15.3574C1049.76 15.3574 1050.32 15.1846 1050.75 14.8389C1051.19 14.4932 1051.51 14.0391 1051.72 13.4766C1051.93 12.9082 1052.04 12.2988 1052.04 11.6484C1052.04 10.9863 1051.93 10.3711 1051.72 9.80273C1051.51 9.23438 1051.19 8.77734 1050.75 8.43164C1050.32 8.08008 1049.76 7.9043 1049.08 7.9043C1048.42 7.9043 1047.87 8.08008 1047.43 8.43164C1047 8.77734 1046.68 9.23438 1046.46 9.80273C1046.25 10.3711 1046.15 10.9863 1046.15 11.6484C1046.15 12.2988 1046.25 12.9082 1046.46 13.4766C1046.68 14.0391 1047 14.4932 1047.43 14.8389C1047.87 15.1846 1048.42 15.3574 1049.08 15.3574ZM1054.13 16.5V15.0938H1054.48C1054.88 15.0938 1055.19 14.9854 1055.41 14.7686C1055.63 14.5459 1055.8 14.1416 1055.9 13.5557C1056.02 12.9697 1056.09 12.1289 1056.13 11.0332L1056.31 6.67383H1062.85V16.5H1061.34V8.08008H1057.73L1057.57 11.5957C1057.54 12.3984 1057.47 13.1074 1057.36 13.7227C1057.26 14.332 1057.09 14.8447 1056.87 15.2607C1056.65 15.6709 1056.36 15.9814 1056 16.1924C1055.64 16.3975 1055.18 16.5 1054.64 16.5H1054.13ZM1070.83 6.67383V8.08008H1066.28V16.5H1064.78V6.67383H1070.83Z" fill="white"/>
<path d="M1108.25 14.825L1111.4 12.925L1114.55 14.85L1113.73 11.25L1116.5 8.85L1112.85 8.525L1111.4 5.125L1109.95 8.5L1106.3 8.825L1109.08 11.25L1108.25 14.825ZM1105.23 19L1106.85 11.975L1101.4 7.25L1108.6 6.625L1111.4 0L1114.2 6.625L1121.4 7.25L1115.95 11.975L1117.58 19L1111.4 15.275L1105.23 19Z" fill="white"/>
<path d="M1153.17 3.4043H1154.77V7.78125C1154.76 8.75391 1155.01 9.41895 1155.5 9.77637C1156 10.1338 1156.68 10.3125 1157.53 10.3125C1157.88 10.3125 1158.22 10.3008 1158.55 10.2773C1158.88 10.248 1159.21 10.207 1159.52 10.1543C1159.84 10.1016 1160.16 10.04 1160.46 9.96973C1160.77 9.89941 1161.07 9.82031 1161.36 9.73242V11.1562C1161.07 11.2441 1160.79 11.3262 1160.51 11.4023C1160.23 11.4727 1159.94 11.5342 1159.64 11.5869C1159.34 11.6338 1159.01 11.6719 1158.67 11.7012C1158.33 11.7246 1157.95 11.7363 1157.53 11.7363C1156.62 11.7363 1155.85 11.6074 1155.2 11.3496C1154.55 11.0918 1154.05 10.6729 1153.69 10.0928C1153.35 9.5127 1153.17 8.74219 1153.17 7.78125V3.4043ZM1161.15 3.4043H1162.73V16.5H1161.15V3.4043ZM1168.97 16.7109C1168.03 16.7109 1167.21 16.5 1166.52 16.0781C1165.83 15.6562 1165.3 15.0674 1164.94 14.3115C1164.57 13.5498 1164.38 12.668 1164.38 11.666C1164.38 10.6582 1164.56 9.77051 1164.93 9.00293C1165.29 8.23535 1165.8 7.63477 1166.46 7.20117C1167.12 6.76758 1167.89 6.55078 1168.78 6.55078C1169.29 6.55078 1169.79 6.63574 1170.3 6.80566C1170.8 6.97559 1171.26 7.25098 1171.67 7.63184C1172.08 8.0127 1172.42 8.5166 1172.66 9.14355C1172.91 9.77051 1173.03 10.541 1173.03 11.4551V12.1055H1165.45V10.8047H1172.21L1171.52 11.2969C1171.52 10.6406 1171.42 10.0576 1171.21 9.54785C1171.01 9.03809 1170.7 8.63672 1170.29 8.34375C1169.88 8.05078 1169.38 7.9043 1168.78 7.9043C1168.17 7.9043 1167.65 8.05371 1167.22 8.35254C1166.79 8.64551 1166.46 9.0293 1166.24 9.50391C1166.01 9.97852 1165.89 10.4883 1165.89 11.0332V11.8945C1165.89 12.6387 1166.02 13.2686 1166.28 13.7842C1166.54 14.2998 1166.9 14.6924 1167.36 14.9619C1167.82 15.2256 1168.36 15.3574 1168.97 15.3574C1169.36 15.3574 1169.72 15.3018 1170.04 15.1904C1170.36 15.0732 1170.64 14.9004 1170.88 14.6719C1171.11 14.4375 1171.29 14.1504 1171.41 13.8105L1172.87 14.2324C1172.72 14.7246 1172.46 15.1582 1172.1 15.5332C1171.74 15.9023 1171.3 16.1924 1170.76 16.4033C1170.23 16.6084 1169.63 16.7109 1168.97 16.7109ZM1178.43 16.7109C1177.51 16.7109 1176.72 16.4941 1176.05 16.0605C1175.39 15.6211 1174.88 15.0205 1174.52 14.2588C1174.16 13.4971 1173.98 12.627 1173.98 11.6484C1173.98 10.6465 1174.16 9.76465 1174.53 9.00293C1174.9 8.23535 1175.42 7.63477 1176.08 7.20117C1176.75 6.76758 1177.52 6.55078 1178.41 6.55078C1179.1 6.55078 1179.72 6.67969 1180.27 6.9375C1180.83 7.18945 1181.28 7.54688 1181.63 8.00977C1181.99 8.47266 1182.21 9.01172 1182.29 9.62695H1180.78C1180.71 9.32812 1180.57 9.04688 1180.37 8.7832C1180.17 8.51953 1179.91 8.30859 1179.58 8.15039C1179.26 7.98633 1178.87 7.9043 1178.43 7.9043C1177.84 7.9043 1177.33 8.05664 1176.89 8.36133C1176.45 8.66602 1176.11 9.09668 1175.86 9.65332C1175.61 10.2041 1175.49 10.8516 1175.49 11.5957C1175.49 12.3516 1175.61 13.0137 1175.85 13.582C1176.09 14.1445 1176.43 14.5811 1176.87 14.8916C1177.32 15.2021 1177.83 15.3574 1178.43 15.3574C1179.02 15.3574 1179.53 15.2051 1179.95 14.9004C1180.37 14.5898 1180.65 14.168 1180.78 13.6348H1182.29C1182.21 14.2148 1182 14.7363 1181.66 15.1992C1181.33 15.6621 1180.88 16.0312 1180.33 16.3066C1179.79 16.5762 1179.15 16.7109 1178.43 16.7109ZM1182.43 8.08008V6.67383H1190.4V8.08008H1187.18V16.5H1185.67V8.08008H1182.43ZM1193.07 10.2422H1195.88C1197.03 10.2363 1197.91 10.5264 1198.52 11.1123C1199.13 11.6982 1199.43 12.4395 1199.43 13.3359C1199.43 13.9219 1199.29 14.4551 1199.02 14.9355C1198.75 15.4102 1198.35 15.791 1197.82 16.0781C1197.3 16.3594 1196.65 16.5 1195.88 16.5H1191.77V6.67383H1193.26V15.0938H1195.88C1196.47 15.0938 1196.96 14.9385 1197.34 14.6279C1197.73 14.3115 1197.92 13.9043 1197.92 13.4062C1197.92 12.8848 1197.73 12.46 1197.34 12.1318C1196.96 11.8037 1196.47 11.6426 1195.88 11.6484H1193.07V10.2422Z" fill="white"/>
<path d="M1237.25 14.825L1240.4 12.925L1243.55 14.85L1242.73 11.25L1245.5 8.85L1241.85 8.525L1240.4 5.125L1238.95 8.5L1235.3 8.825L1238.08 11.25L1237.25 14.825ZM1234.23 19L1235.85 11.975L1230.4 7.25L1237.6 6.625L1240.4 0L1243.2 6.625L1250.4 7.25L1244.95 11.975L1246.58 19L1240.4 15.275L1234.23 19Z" fill="white"/>
<path d="M1281.75 16.5V3.4043H1286.18C1287.21 3.4043 1288.04 3.58887 1288.7 3.95801C1289.35 4.32715 1289.84 4.8252 1290.15 5.45215C1290.47 6.0791 1290.63 6.7793 1290.63 7.55273C1290.63 8.32031 1290.47 9.02051 1290.15 9.65332C1289.84 10.2861 1289.36 10.79 1288.7 11.165C1288.05 11.5342 1287.22 11.7188 1286.2 11.7188H1283.04V10.3125H1286.15C1286.85 10.3125 1287.42 10.1924 1287.84 9.95215C1288.27 9.71191 1288.58 9.38379 1288.77 8.96777C1288.97 8.5459 1289.06 8.07422 1289.06 7.55273C1289.06 7.02539 1288.97 6.55664 1288.77 6.14648C1288.58 5.73047 1288.27 5.40527 1287.83 5.1709C1287.41 4.93066 1286.84 4.81055 1286.13 4.81055H1283.33V16.5H1281.75ZM1296.01 16.7109C1295.12 16.7109 1294.35 16.5 1293.68 16.0781C1293.01 15.6562 1292.49 15.0645 1292.11 14.3027C1291.75 13.541 1291.56 12.6562 1291.56 11.6484C1291.56 10.623 1291.75 9.72949 1292.11 8.96777C1292.49 8.2002 1293.01 7.60547 1293.68 7.18359C1294.35 6.76172 1295.12 6.55078 1296.01 6.55078C1296.9 6.55078 1297.68 6.76172 1298.35 7.18359C1299.01 7.60547 1299.54 8.2002 1299.91 8.96777C1300.29 9.72949 1300.47 10.623 1300.47 11.6484C1300.47 12.6562 1300.29 13.541 1299.91 14.3027C1299.54 15.0645 1299.01 15.6562 1298.35 16.0781C1297.68 16.5 1296.9 16.7109 1296.01 16.7109ZM1296.01 15.3574C1296.69 15.3574 1297.24 15.1846 1297.68 14.8389C1298.11 14.4932 1298.43 14.0391 1298.64 13.4766C1298.86 12.9082 1298.96 12.2988 1298.96 11.6484C1298.96 10.9863 1298.86 10.3711 1298.64 9.80273C1298.43 9.23438 1298.11 8.77734 1297.68 8.43164C1297.24 8.08008 1296.69 7.9043 1296.01 7.9043C1295.34 7.9043 1294.79 8.08008 1294.36 8.43164C1293.92 8.77734 1293.6 9.23438 1293.39 9.80273C1293.18 10.3711 1293.07 10.9863 1293.07 11.6484C1293.07 12.2988 1293.18 12.9082 1293.39 13.4766C1293.6 14.0391 1293.92 14.4932 1294.36 14.8389C1294.79 15.1846 1295.34 15.3574 1296.01 15.3574ZM1300.88 19.3125V15.0938H1301.69C1301.88 14.8828 1302.06 14.6572 1302.2 14.417C1302.36 14.1768 1302.49 13.8896 1302.59 13.5557C1302.7 13.2158 1302.79 12.8057 1302.86 12.3252C1302.95 11.8447 1303.02 11.2617 1303.07 10.5762L1303.41 6.67383H1309.65V15.0938H1311.16V19.3125H1309.65V16.5H1302.39V19.3125H1300.88ZM1303.41 15.0938H1308.14V8.08008H1304.81L1304.55 10.5762C1304.45 11.6016 1304.32 12.498 1304.16 13.2656C1304.01 14.0332 1303.75 14.6426 1303.41 15.0938ZM1313.81 14.2676L1318.54 6.67383H1320.28V16.5H1318.79V8.90625L1314.08 16.5H1312.32V6.67383H1313.81V14.2676ZM1328.77 10.8926V12.2988H1323.36V10.8926H1328.77ZM1323.71 6.67383V16.5H1322.22V6.67383H1323.71ZM1329.93 6.67383V16.5H1328.42V6.67383H1329.93ZM1334.75 16.7285C1334.13 16.7285 1333.56 16.6113 1333.05 16.377C1332.54 16.1367 1332.14 15.791 1331.84 15.3398C1331.54 14.8887 1331.39 14.3438 1331.39 13.7051C1331.39 13.1426 1331.5 12.6885 1331.73 12.3428C1331.95 11.9912 1332.25 11.7158 1332.61 11.5166C1332.99 11.3115 1333.4 11.1592 1333.84 11.0596C1334.3 10.96 1334.75 10.8809 1335.21 10.8223C1335.8 10.7461 1336.29 10.6875 1336.66 10.6465C1337.03 10.6055 1337.3 10.5352 1337.47 10.4355C1337.65 10.3359 1337.74 10.166 1337.74 9.92578V9.87305C1337.74 9.24609 1337.57 8.75977 1337.22 8.41406C1336.88 8.0625 1336.36 7.88672 1335.66 7.88672C1334.95 7.88672 1334.39 8.04492 1333.98 8.36133C1333.57 8.67188 1333.28 9.00586 1333.12 9.36328L1331.67 8.85352C1331.93 8.25586 1332.27 7.79004 1332.7 7.45605C1333.14 7.12207 1333.6 6.8877 1334.11 6.75293C1334.62 6.61816 1335.12 6.55078 1335.61 6.55078C1335.93 6.55078 1336.29 6.58887 1336.7 6.66504C1337.11 6.73535 1337.51 6.8877 1337.9 7.12207C1338.29 7.35059 1338.61 7.69922 1338.86 8.16797C1339.12 8.63086 1339.25 9.25195 1339.25 10.0312V16.5H1337.74V15.1641H1337.67C1337.57 15.375 1337.4 15.6035 1337.16 15.8496C1336.92 16.0898 1336.6 16.2979 1336.2 16.4736C1335.81 16.6436 1335.32 16.7285 1334.75 16.7285ZM1334.98 15.375C1335.58 15.375 1336.08 15.2578 1336.49 15.0234C1336.9 14.7891 1337.21 14.4873 1337.42 14.1182C1337.63 13.7432 1337.74 13.3535 1337.74 12.9492V11.5605C1337.67 11.6367 1337.53 11.707 1337.32 11.7715C1337.11 11.8301 1336.86 11.8828 1336.58 11.9297C1336.3 11.9766 1336.03 12.0176 1335.77 12.0527C1335.51 12.082 1335.29 12.1055 1335.14 12.123C1334.74 12.1758 1334.38 12.2607 1334.04 12.3779C1333.7 12.4893 1333.42 12.6562 1333.21 12.8789C1333.01 13.1016 1332.9 13.4062 1332.9 13.793C1332.9 14.3145 1333.1 14.71 1333.48 14.9795C1333.88 15.2432 1334.38 15.375 1334.98 15.375Z" fill="white"/>
</svg>
